<svg width="29" height="34" viewBox="0 0 29 34" fill="none" xmlns="http://www.w3.org/2000/svg">
<path d="M1.59901 17.6138C2.25123 18.2438 2.95961 18.8179 3.71604 19.3295C3.91455 19.466 4.17673 19.4822 4.39181 19.3711C4.60689 19.2601 4.73736 19.0412 4.72808 18.807C4.55306 14.9489 4.90018 3.02681 15.5352 0.0234932C15.743 -0.0349251 15.9675 0.0173681 16.1242 0.160712C16.281 0.304057 16.3463 0.516725 16.2956 0.718762C13.5438 11.9009 20.4363 15.3158 23.5687 10.0382C23.67 9.86287 23.8595 9.75129 24.0682 9.74413C24.2769 9.73698 24.4743 9.83529 24.5883 10.0032C27.3254 14.0623 26.6032 17.6942 25.8687 19.5899C25.7474 19.9132 25.8467 20.275 26.1183 20.4989C26.3899 20.7229 26.7775 20.7626 27.0922 20.5986C27.5548 20.3545 27.9807 20.0511 28.358 19.6968C28.4524 19.6103 28.5914 19.5858 28.7116 19.6346C28.8319 19.6834 28.9104 19.7961 28.9115 19.9214V19.9295C28.9145 27.4095 22.7392 33.5454 14.9505 33.8015C7.16183 34.0575 0.563646 28.3415 0.033421 20.8787C-0.0320939 19.9507 -0.00123588 19.0187 0.125539 18.0965C0.167262 17.7813 0.39238 17.5164 0.705696 17.4139C1.01901 17.3114 1.36581 17.3891 1.59943 17.6142L1.59901 17.6138Z" fill="white"/>
<path d="M1.61326 17.6589C2.27113 18.2873 2.98564 18.8599 3.74862 19.3702C3.94884 19.5064 4.21329 19.5225 4.43023 19.4117C4.64717 19.301 4.77877 19.0827 4.76941 18.8491C4.62159 15.6383 4.84163 6.82118 11.1569 2.25391C10.6839 2.76098 8.3876 5.09993 6.56985 11.382C5.93634 13.5787 6.03686 17.5491 6.33376 21.4393C6.49721 23.5811 1.55794 20.1522 1.77882 22.3565C2.12725 25.8286 7.74776 29.87 11.0044 31.0301C17.5406 33.3582 26.5318 28.0057 25.6373 28.9925C21.7802 33.2501 15.595 34.8737 9.98106 33.1023C4.36713 31.331 0.437291 26.5157 0.0337101 20.9138C-0.0323715 19.9882 -0.00124658 19.0586 0.126625 18.1388C0.168709 17.8244 0.395775 17.5602 0.711801 17.458C1.02783 17.3557 1.37762 17.4332 1.61326 17.6577V17.6589Z" fill="white"/>
</svg>
